<svg id="svg" xmlns="http://www.w3.org/2000/svg" xmlns:xlink="http://www.w3.org/1999/xlink" width="400" height="396.7967967967968" viewBox="0, 0, 400,396.7967967967968"><g id="svgg"><path id="path0" d="M313.889 77.567 C 308.880 79.687,303.023 82.152,288.889 88.087 C 273.607 94.504,269.005 96.442,252.579 103.379 C 243.413 107.250,234.306 111.086,232.341 111.904 C 230.377 112.721,221.895 116.290,213.492 119.834 C 205.089 123.378,193.304 128.325,187.302 130.827 C 181.300 133.330,174.782 136.067,172.817 136.909 C 170.853 137.752,165.050 140.210,159.921 142.372 C 154.792 144.534,144.115 149.041,136.195 152.387 L 121.795 158.471 108.417 175.517 C 101.060 184.893,92.982 195.174,90.466 198.365 C 87.951 201.556,84.706 205.699,83.255 207.572 L 80.617 210.977 100.527 230.866 L 120.437 250.756 121.627 249.731 C 122.282 249.168,124.067 247.594,125.595 246.234 C 128.385 243.749,130.819 241.604,150.595 224.198 C 163.163 213.138,172.935 204.527,184.139 194.643 C 192.519 187.250,196.119 184.079,204.189 176.984 C 220.640 162.521,239.721 145.705,241.071 144.479 C 241.944 143.687,245.605 140.462,249.206 137.313 C 252.808 134.163,257.986 129.605,260.714 127.183 C 263.442 124.761,273.264 116.097,282.540 107.929 C 291.815 99.762,301.532 91.199,304.131 88.901 C 312.431 81.563,318.471 76.404,317.829 77.202 C 317.486 77.628,315.157 80.298,312.653 83.135 C 310.148 85.972,304.171 92.758,299.370 98.214 C 285.436 114.048,272.319 128.938,269.653 131.944 C 268.299 133.472,261.771 140.883,255.146 148.413 C 248.521 155.942,241.207 164.246,238.891 166.865 C 236.576 169.484,230.682 176.181,225.793 181.746 C 220.904 187.312,211.002 198.547,203.789 206.713 C 189.824 222.524,173.795 240.760,164.161 251.797 C 160.927 255.501,156.642 260.397,154.637 262.676 C 152.632 264.956,149.519 268.498,147.718 270.548 C 145.918 272.598,144.444 274.394,144.444 274.540 C 144.444 275.341,190.849 321.126,191.433 320.902 C 192.006 320.682,207.005 310.656,236.894 290.515 L 247.003 283.703 248.934 278.260 C 249.995 275.267,258.510 250.853,267.855 224.008 C 283.190 179.956,288.595 164.464,300.670 129.960 C 302.732 124.067,305.284 116.746,306.340 113.690 C 309.906 103.380,314.991 88.730,317.222 82.341 C 318.442 78.849,319.441 75.858,319.442 75.694 C 319.446 75.237,319.192 75.322,313.889 77.567 " stroke="none" fill="#f1f1f1" fill-rule="evenodd"></path><path id="path1" d="M0.000 198.413 L 0.000 396.825 132.937 396.825 C 206.052 396.825,265.873 396.721,265.873 396.593 C 265.873 396.465,224.186 354.649,173.236 303.669 C 73.362 203.736,80.087 210.730,82.013 208.803 C 82.309 208.507,83.039 207.610,83.635 206.811 C 84.230 206.011,84.821 205.268,84.946 205.159 C 85.072 205.050,87.830 201.567,91.075 197.421 C 100.319 185.609,108.215 175.540,111.457 171.429 C 113.093 169.355,115.246 166.607,116.243 165.322 C 117.240 164.036,118.948 161.912,120.040 160.601 L 122.024 158.217 136.508 152.112 C 144.474 148.754,155.278 144.207,160.516 142.008 C 165.754 139.809,171.230 137.493,172.686 136.862 C 174.141 136.231,175.535 135.714,175.784 135.714 C 176.033 135.714,176.110 135.508,175.954 135.256 C 175.795 134.999,175.844 134.905,176.066 135.042 C 176.387 135.241,183.260 132.565,189.051 129.987 C 189.726 129.686,195.188 127.389,201.190 124.881 C 207.192 122.373,220.228 116.889,230.159 112.696 C 240.089 108.502,252.589 103.237,257.937 100.997 C 263.284 98.756,269.355 96.198,271.429 95.312 C 273.502 94.426,279.242 92.007,284.185 89.935 C 289.128 87.864,293.503 86.000,293.907 85.792 C 294.312 85.585,296.250 84.782,298.214 84.008 C 300.179 83.234,305.000 81.236,308.929 79.568 C 312.857 77.900,316.952 76.180,318.028 75.745 L 319.985 74.955 359.993 114.955 L 400.000 154.955 400.000 77.477 L 400.000 0.000 200.000 0.000 L 0.000 0.000 0.000 198.413 " stroke="none" fill="#f35353" fill-rule="evenodd"></path><path id="path2" d="M319.648 76.091 C 319.269 77.039,315.140 88.874,306.946 112.500 C 297.577 139.513,289.865 161.638,278.108 195.238 C 272.648 210.843,264.524 234.147,260.055 247.024 C 250.248 275.280,247.248 283.844,247.120 283.942 C 247.067 283.983,238.810 289.517,228.770 296.241 C 199.096 316.113,192.291 320.704,191.742 321.216 C 191.323 321.609,198.461 328.941,228.783 359.264 L 266.342 396.825 333.171 396.825 L 400.000 396.825 400.000 275.892 L 400.000 154.959 360.218 115.178 C 338.337 93.298,320.321 75.397,320.181 75.397 C 320.041 75.397,319.801 75.709,319.648 76.091 M132.066 262.608 L 143.849 274.427 145.833 272.245 C 151.455 266.063,157.937 258.641,157.937 258.387 C 157.937 258.228,153.517 257.251,148.115 256.216 C 142.713 255.180,134.633 253.631,130.159 252.774 C 125.685 251.916,121.632 251.119,121.153 251.002 C 120.658 250.881,125.370 255.893,132.066 262.608 " stroke="none" fill="#c4534b" fill-rule="evenodd"></path><path id="path3" d="M314.896 79.493 C 313.819 80.405,310.785 83.049,308.155 85.369 C 305.525 87.689,297.748 94.544,290.873 100.604 C 278.029 111.923,275.051 114.554,268.862 120.046 C 266.891 121.796,264.551 123.849,263.662 124.610 C 261.254 126.670,242.905 142.807,241.071 144.477 C 240.198 145.272,231.716 152.756,222.222 161.108 C 204.759 176.471,197.622 182.754,194.676 185.362 C 187.962 191.302,183.874 194.906,175.592 202.183 C 170.376 206.766,164.493 211.953,162.518 213.709 C 160.544 215.465,154.568 220.733,149.238 225.416 C 143.909 230.098,136.944 236.230,133.762 239.043 C 130.580 241.855,126.417 245.516,124.512 247.177 L 121.047 250.198 122.211 250.688 C 122.851 250.957,124.678 251.368,126.271 251.602 C 127.864 251.835,130.651 252.380,132.466 252.812 C 134.280 253.244,136.423 253.675,137.228 253.770 C 138.032 253.864,139.494 254.120,140.476 254.338 C 141.458 254.556,143.423 254.925,144.841 255.156 C 147.341 255.564,149.410 255.987,155.472 257.325 C 158.983 258.101,158.066 258.702,164.419 251.465 C 185.420 227.541,192.207 219.826,203.789 206.713 C 211.002 198.547,220.904 187.312,225.793 181.746 C 230.682 176.181,236.576 169.484,238.891 166.865 C 241.207 164.246,248.521 155.942,255.146 148.413 C 261.771 140.883,268.299 133.472,269.653 131.944 C 274.457 126.525,306.276 90.382,311.225 84.722 C 312.943 82.758,314.979 80.471,315.750 79.640 C 317.674 77.567,317.257 77.494,314.896 79.493 " stroke="none" fill="#a5a3ac" fill-rule="evenodd"></path><path id="path4" d="M287.743 166.711 C 287.498 167.412,287.367 168.055,287.452 168.140 C 287.537 168.225,287.807 167.721,288.051 167.019 C 288.296 166.318,288.426 165.675,288.341 165.590 C 288.256 165.505,287.987 166.009,287.743 166.711 M120.853 250.753 C 121.061 250.949,122.034 251.216,123.016 251.348 L 124.802 251.587 123.016 250.998 C 120.935 250.312,120.311 250.241,120.853 250.753 M129.365 252.571 C 131.875 253.094,134.196 253.517,134.524 253.511 C 135.784 253.491,129.441 252.044,127.183 251.838 C 125.455 251.680,126.053 251.881,129.365 252.571 M137.698 253.885 C 137.698 254.284,142.795 255.353,143.125 255.023 C 143.221 254.927,142.352 254.674,141.193 254.461 C 140.035 254.248,138.775 253.942,138.393 253.780 C 137.997 253.613,137.698 253.658,137.698 253.885 M146.825 255.946 C 148.681 256.366,150.556 256.706,150.992 256.701 C 152.327 256.687,147.959 255.621,145.635 255.394 C 143.784 255.214,143.965 255.297,146.825 255.946 M152.976 257.143 C 153.631 257.309,154.524 257.454,154.960 257.465 L 155.754 257.484 154.960 257.143 C 154.524 256.955,153.631 256.810,152.976 256.821 L 151.786 256.840 152.976 257.143 M155.338 261.607 L 153.770 263.294 155.456 261.725 C 157.025 260.266,157.325 259.921,157.025 259.921 C 156.960 259.921,156.201 260.680,155.338 261.607 M152.360 264.980 L 150.992 266.468 152.480 265.101 C 153.865 263.828,154.151 263.492,153.848 263.492 C 153.781 263.492,153.112 264.162,152.360 264.980 M148.983 268.750 L 147.817 270.040 149.107 268.874 C 150.309 267.788,150.579 267.460,150.273 267.460 C 150.204 267.460,149.624 268.041,148.983 268.750 M146.407 271.726 L 145.040 273.214 146.528 271.847 C 147.913 270.574,148.198 270.238,147.895 270.238 C 147.829 270.238,147.159 270.908,146.407 271.726 M234.208 292.234 C 232.364 293.537,232.105 293.910,233.661 293.018 C 234.388 292.602,235.168 292.039,235.397 291.766 C 235.983 291.065,235.708 291.173,234.208 292.234 " stroke="none" fill="#b29d9c" fill-rule="evenodd"></path></g></svg>