<?xml version="1.0" standalone="no"?>
<!DOCTYPE svg PUBLIC "-//W3C//DTD SVG 20010904//EN"
 "http://www.w3.org/TR/2001/REC-SVG-20010904/DTD/svg10.dtd">
<svg version="1.0" xmlns="http://www.w3.org/2000/svg"
 width="999.000000pt" height="991.000000pt" viewBox="0 0 999.000000 991.000000"
 preserveAspectRatio="xMidYMid meet">
<metadata>
Created by potrace 1.15, written by Peter Selinger 2001-2017
</metadata>
<g transform="translate(0.000000,991.000000) scale(0.100000,-0.100000)"
fill="#000000" stroke="none">
<path d="M0 4955 l0 -4955 4995 0 4995 0 0 4955 0 4955 -4995 0 -4995 0 0
-4955z m7990 3080 c0 -4 -53 -157 -262 -755 -61 -173 -132 -378 -158 -455 -27
-77 -93 -268 -148 -425 -55 -157 -155 -442 -222 -635 -67 -192 -156 -447 -197
-565 -41 -118 -94 -271 -118 -340 -24 -69 -161 -462 -305 -875 -144 -412 -294
-842 -333 -955 l-71 -206 -146 -98 c-80 -54 -396 -267 -704 -473 l-558 -375
-43 42 c-24 23 -46 42 -49 41 -3 -1 -6 2 -6 7 -1 15 -64 71 -73 65 -6 -3 -7
-2 -4 4 6 9 -69 91 -78 86 -3 -2 -4 -1 -2 1 5 10 -67 75 -76 69 -6 -3 -7 -2
-4 4 6 9 -69 91 -78 86 -3 -2 -5 0 -5 5 -1 15 -64 71 -73 65 -6 -3 -7 -2 -4 4
6 10 -68 89 -81 87 -4 -1 -6 1 -5 6 2 9 -65 76 -75 74 -4 -1 -6 1 -5 6 2 9
-65 76 -75 74 -4 -1 -6 1 -5 6 2 9 -58 69 -72 71 -5 0 -9 4 -8 9 2 9 -65 76
-75 74 -4 -1 -6 1 -5 6 2 8 -66 76 -73 73 -2 -2 -4 0 -4 5 -1 11 -62 71 -70
69 -5 -1 -9 3 -9 8 -2 14 -93 105 -101 100 -3 -2 -7 5 -7 17 -1 13 48 77 140
180 215 244 210 238 195 242 -7 3 -121 25 -253 51 -132 25 -341 65 -464 89
l-223 43 -494 494 c-272 272 -494 496 -494 500 0 5 84 114 375 484 77 98 182
232 234 299 52 67 136 174 188 239 52 64 91 122 88 127 -4 6 -2 9 3 8 6 -2 41
35 79 81 l68 84 245 102 c135 56 515 216 845 355 330 139 701 295 825 347 124
52 293 123 375 158 184 78 508 214 630 265 50 21 160 67 245 103 175 74 502
211 820 345 118 50 278 117 355 149 77 33 224 95 327 138 103 44 185 83 182
87 -3 4 2 5 10 2 8 -3 27 1 43 10 29 16 43 19 43 11z"/>
</g>
</svg>
